<mxfile host="app.diagrams.net" modified="2024-07-16T13:27:41.092Z" agent="Mozilla/5.0 (Windows NT 10.0; Win64; x64) AppleWebKit/537.36 (KHTML, like Gecko) Chrome/126.0.0.0 Safari/537.36" etag="PvDhVFyuTFMEYpt0OUqL" version="21.7.1" type="device">
  <diagram name="PÃ¡gina-1" id="eLpVybsgHR8zys0xibxW">
    <mxGraphModel dx="2138" dy="666" grid="1" gridSize="10" guides="1" tooltips="1" connect="1" arrows="1" fold="1" page="1" pageScale="1" pageWidth="827" pageHeight="1169" math="0" shadow="0">
      <root>
        <mxCell id="0" />
        <mxCell id="1" parent="0" />
        <mxCell id="DLT_yXjdwCVn4STj9Viw-1" value="categoria" style="whiteSpace=wrap;html=1;align=center;" vertex="1" parent="1">
          <mxGeometry x="920" y="420" width="100" height="40" as="geometry" />
        </mxCell>
        <mxCell id="DLT_yXjdwCVn4STj9Viw-2" value="producto" style="whiteSpace=wrap;html=1;align=center;" vertex="1" parent="1">
          <mxGeometry x="520" y="420" width="100" height="40" as="geometry" />
        </mxCell>
        <mxCell id="DLT_yXjdwCVn4STj9Viw-4" value="orden_detalle" style="whiteSpace=wrap;html=1;align=center;" vertex="1" parent="1">
          <mxGeometry x="160" y="420" width="100" height="40" as="geometry" />
        </mxCell>
        <mxCell id="DLT_yXjdwCVn4STj9Viw-5" value="factura" style="whiteSpace=wrap;html=1;align=center;" vertex="1" parent="1">
          <mxGeometry x="-260" y="190" width="100" height="40" as="geometry" />
        </mxCell>
        <mxCell id="DLT_yXjdwCVn4STj9Viw-6" value="usuarios" style="whiteSpace=wrap;html=1;align=center;" vertex="1" parent="1">
          <mxGeometry x="520" y="190" width="100" height="40" as="geometry" />
        </mxCell>
        <mxCell id="DLT_yXjdwCVn4STj9Viw-7" value="inv_fijo" style="whiteSpace=wrap;html=1;align=center;" vertex="1" parent="1">
          <mxGeometry x="280" y="590" width="100" height="40" as="geometry" />
        </mxCell>
        <mxCell id="DLT_yXjdwCVn4STj9Viw-8" value="inv_no_fijo" style="whiteSpace=wrap;html=1;align=center;" vertex="1" parent="1">
          <mxGeometry x="760" y="589" width="100" height="40" as="geometry" />
        </mxCell>
        <mxCell id="DLT_yXjdwCVn4STj9Viw-9" value="ordenes" style="whiteSpace=wrap;html=1;align=center;" vertex="1" parent="1">
          <mxGeometry x="160" y="190" width="100" height="40" as="geometry" />
        </mxCell>
        <mxCell id="DLT_yXjdwCVn4STj9Viw-10" value="" style="endArrow=none;html=1;rounded=0;entryX=0;entryY=0.5;entryDx=0;entryDy=0;startArrow=ERone;startFill=0;" edge="1" parent="1" source="DLT_yXjdwCVn4STj9Viw-2" target="DLT_yXjdwCVn4STj9Viw-17">
          <mxGeometry relative="1" as="geometry">
            <mxPoint x="620" y="430" as="sourcePoint" />
            <mxPoint x="690" y="440" as="targetPoint" />
          </mxGeometry>
        </mxCell>
        <mxCell id="DLT_yXjdwCVn4STj9Viw-11" value="" style="endArrow=ERmany;html=1;rounded=0;exitX=1;exitY=0.5;exitDx=0;exitDy=0;entryX=0;entryY=0.5;entryDx=0;entryDy=0;endFill=0;" edge="1" parent="1" source="DLT_yXjdwCVn4STj9Viw-17" target="DLT_yXjdwCVn4STj9Viw-1">
          <mxGeometry relative="1" as="geometry">
            <mxPoint x="800" y="370" as="sourcePoint" />
            <mxPoint x="960" y="370" as="targetPoint" />
          </mxGeometry>
        </mxCell>
        <mxCell id="DLT_yXjdwCVn4STj9Viw-12" value="" style="endArrow=none;html=1;rounded=0;exitX=1;exitY=0.5;exitDx=0;exitDy=0;entryX=0;entryY=0.5;entryDx=0;entryDy=0;startArrow=ERone;startFill=0;" edge="1" parent="1" source="DLT_yXjdwCVn4STj9Viw-9" target="DLT_yXjdwCVn4STj9Viw-18">
          <mxGeometry relative="1" as="geometry">
            <mxPoint x="280" y="260" as="sourcePoint" />
            <mxPoint x="440" y="260" as="targetPoint" />
          </mxGeometry>
        </mxCell>
        <mxCell id="DLT_yXjdwCVn4STj9Viw-13" value="" style="endArrow=ERmany;html=1;rounded=0;exitX=1;exitY=0.5;exitDx=0;exitDy=0;entryX=0;entryY=0.5;entryDx=0;entryDy=0;endFill=0;" edge="1" parent="1" source="DLT_yXjdwCVn4STj9Viw-18" target="DLT_yXjdwCVn4STj9Viw-6">
          <mxGeometry relative="1" as="geometry">
            <mxPoint x="420" y="250" as="sourcePoint" />
            <mxPoint x="580" y="250" as="targetPoint" />
          </mxGeometry>
        </mxCell>
        <mxCell id="DLT_yXjdwCVn4STj9Viw-14" value="" style="endArrow=none;html=1;rounded=0;startArrow=ERone;startFill=0;entryX=0.5;entryY=1;entryDx=0;entryDy=0;exitX=0.5;exitY=0;exitDx=0;exitDy=0;" edge="1" parent="1" source="DLT_yXjdwCVn4STj9Viw-4" target="DLT_yXjdwCVn4STj9Viw-19">
          <mxGeometry relative="1" as="geometry">
            <mxPoint x="414" y="340" as="sourcePoint" />
            <mxPoint x="574" y="340" as="targetPoint" />
          </mxGeometry>
        </mxCell>
        <mxCell id="DLT_yXjdwCVn4STj9Viw-15" value="" style="endArrow=ERmany;html=1;rounded=0;endFill=0;exitX=0.5;exitY=0;exitDx=0;exitDy=0;entryX=0.5;entryY=1;entryDx=0;entryDy=0;" edge="1" parent="1" source="DLT_yXjdwCVn4STj9Viw-19" target="DLT_yXjdwCVn4STj9Viw-9">
          <mxGeometry relative="1" as="geometry">
            <mxPoint x="330" y="290" as="sourcePoint" />
            <mxPoint x="490" y="290" as="targetPoint" />
          </mxGeometry>
        </mxCell>
        <mxCell id="DLT_yXjdwCVn4STj9Viw-16" value="" style="endArrow=none;html=1;rounded=0;startArrow=ERone;startFill=0;exitX=1;exitY=0.5;exitDx=0;exitDy=0;entryX=0;entryY=0.5;entryDx=0;entryDy=0;" edge="1" parent="1" source="DLT_yXjdwCVn4STj9Viw-4" target="DLT_yXjdwCVn4STj9Viw-20">
          <mxGeometry relative="1" as="geometry">
            <mxPoint x="220" y="540" as="sourcePoint" />
            <mxPoint x="380" y="540" as="targetPoint" />
          </mxGeometry>
        </mxCell>
        <mxCell id="DLT_yXjdwCVn4STj9Viw-17" value="pertenece" style="shape=rhombus;perimeter=rhombusPerimeter;whiteSpace=wrap;html=1;align=center;fillColor=#e1d5e7;strokeColor=#9673a6;" vertex="1" parent="1">
          <mxGeometry x="714" y="410" width="120" height="60" as="geometry" />
        </mxCell>
        <mxCell id="DLT_yXjdwCVn4STj9Viw-18" value="pertenece" style="shape=rhombus;perimeter=rhombusPerimeter;whiteSpace=wrap;html=1;align=center;fillColor=#e1d5e7;strokeColor=#9673a6;" vertex="1" parent="1">
          <mxGeometry x="320" y="180" width="120" height="60" as="geometry" />
        </mxCell>
        <mxCell id="DLT_yXjdwCVn4STj9Viw-19" value="pertenece" style="shape=rhombus;perimeter=rhombusPerimeter;whiteSpace=wrap;html=1;align=center;fillColor=#e1d5e7;strokeColor=#9673a6;" vertex="1" parent="1">
          <mxGeometry x="150" y="300" width="120" height="60" as="geometry" />
        </mxCell>
        <mxCell id="DLT_yXjdwCVn4STj9Viw-20" value="incluye" style="shape=rhombus;perimeter=rhombusPerimeter;whiteSpace=wrap;html=1;align=center;fillColor=#e1d5e7;strokeColor=#9673a6;" vertex="1" parent="1">
          <mxGeometry x="330" y="410" width="120" height="60" as="geometry" />
        </mxCell>
        <mxCell id="DLT_yXjdwCVn4STj9Viw-21" value="" style="endArrow=ERmany;html=1;rounded=0;endFill=0;exitX=1;exitY=0.5;exitDx=0;exitDy=0;entryX=0;entryY=0.5;entryDx=0;entryDy=0;" edge="1" parent="1" source="DLT_yXjdwCVn4STj9Viw-20" target="DLT_yXjdwCVn4STj9Viw-2">
          <mxGeometry relative="1" as="geometry">
            <mxPoint x="430" y="550" as="sourcePoint" />
            <mxPoint x="590" y="550" as="targetPoint" />
          </mxGeometry>
        </mxCell>
        <mxCell id="DLT_yXjdwCVn4STj9Viw-22" value="" style="endArrow=none;html=1;rounded=0;startArrow=ERone;startFill=0;exitX=1;exitY=0.5;exitDx=0;exitDy=0;entryX=0;entryY=0.5;entryDx=0;entryDy=0;" edge="1" parent="1" source="DLT_yXjdwCVn4STj9Viw-5" target="DLT_yXjdwCVn4STj9Viw-26">
          <mxGeometry relative="1" as="geometry">
            <mxPoint x="-130" y="310" as="sourcePoint" />
            <mxPoint x="30" y="310" as="targetPoint" />
          </mxGeometry>
        </mxCell>
        <mxCell id="DLT_yXjdwCVn4STj9Viw-23" value="" style="endArrow=ERone;html=1;rounded=0;endFill=0;entryX=0;entryY=0.5;entryDx=0;entryDy=0;exitX=1;exitY=0.5;exitDx=0;exitDy=0;" edge="1" parent="1" source="DLT_yXjdwCVn4STj9Viw-26" target="DLT_yXjdwCVn4STj9Viw-9">
          <mxGeometry relative="1" as="geometry">
            <mxPoint x="-60" y="320" as="sourcePoint" />
            <mxPoint x="100" y="320" as="targetPoint" />
          </mxGeometry>
        </mxCell>
        <mxCell id="DLT_yXjdwCVn4STj9Viw-24" value="" style="endArrow=none;html=1;rounded=0;startArrow=ERone;startFill=0;exitX=0.5;exitY=1;exitDx=0;exitDy=0;entryX=0.5;entryY=0;entryDx=0;entryDy=0;" edge="1" parent="1" source="DLT_yXjdwCVn4STj9Viw-2" target="DLT_yXjdwCVn4STj9Viw-27">
          <mxGeometry relative="1" as="geometry">
            <mxPoint x="570" y="530" as="sourcePoint" />
            <mxPoint x="730" y="530" as="targetPoint" />
          </mxGeometry>
        </mxCell>
        <mxCell id="DLT_yXjdwCVn4STj9Viw-25" value="" style="endArrow=ERone;html=1;rounded=0;endFill=0;exitX=0;exitY=0.5;exitDx=0;exitDy=0;entryX=1;entryY=0.5;entryDx=0;entryDy=0;" edge="1" parent="1" source="DLT_yXjdwCVn4STj9Viw-27" target="DLT_yXjdwCVn4STj9Viw-7">
          <mxGeometry relative="1" as="geometry">
            <mxPoint x="400" y="690" as="sourcePoint" />
            <mxPoint x="560" y="690" as="targetPoint" />
          </mxGeometry>
        </mxCell>
        <mxCell id="DLT_yXjdwCVn4STj9Viw-26" value="asociada" style="shape=rhombus;perimeter=rhombusPerimeter;whiteSpace=wrap;html=1;align=center;fillColor=#e1d5e7;strokeColor=#9673a6;" vertex="1" parent="1">
          <mxGeometry x="-60" y="180" width="120" height="60" as="geometry" />
        </mxCell>
        <mxCell id="DLT_yXjdwCVn4STj9Viw-27" value="asociada" style="shape=rhombus;perimeter=rhombusPerimeter;whiteSpace=wrap;html=1;align=center;fillColor=#e1d5e7;strokeColor=#9673a6;" vertex="1" parent="1">
          <mxGeometry x="510" y="580" width="120" height="60" as="geometry" />
        </mxCell>
        <mxCell id="DLT_yXjdwCVn4STj9Viw-28" value="" style="endArrow=ERone;html=1;rounded=0;endFill=0;entryX=0;entryY=0.5;entryDx=0;entryDy=0;exitX=1;exitY=0.5;exitDx=0;exitDy=0;" edge="1" parent="1" source="DLT_yXjdwCVn4STj9Viw-27" target="DLT_yXjdwCVn4STj9Viw-8">
          <mxGeometry relative="1" as="geometry">
            <mxPoint x="430" y="730" as="sourcePoint" />
            <mxPoint x="590" y="730" as="targetPoint" />
          </mxGeometry>
        </mxCell>
      </root>
    </mxGraphModel>
  </diagram>
</mxfile>
